# xmcd
#
# Track frame offsets:
#	150
#	13821
#	28851
#	45759
#	60499
#	84928
#	100882
#	113916
#	132330
#	146471
#	176448
#	191108
#	205580
#
# Disc length: 2992 seconds
#
# Revision: 0
# Processed by: cddbd v1.5.2PL0 Copyright (c) Steve Scherf et al.
# Submitted via: EasyCDDAExtractor 10.0.6.1
#
DISCID=a60bae0d
DTITLE=Mike Brosnan - Down Under Blues
DYEAR=1998
DGENRE=Blues
TTITLE0=Big Road Blues
TTITLE1=Good Morning Blues
TTITLE2=Good Liquor and Bad Company
TTITLE3=Hard Times 7 Trouble
TTITLE4=Highway 60
TTITLE5=Spoonfall
TTITLE6=Ain't Nobody's Business
TTITLE7=Roll and Tumble
TTITLE8=Look Behind You
TTITLE9=Wild Mountain Time
TTITLE10=Come On In My Kitchen
TTITLE11=Little Sadie
TTITLE12=last call
EXTD=
EXTT0=
EXTT1=
EXTT2=
EXTT3=
EXTT4=
EXTT5=
EXTT6=
EXTT7=
EXTT8=
EXTT9=
EXTT10=
EXTT11=
EXTT12=
PLAYORDER=
